<svg xmlns="http://www.w3.org/2000/svg" width="43.727" height="43.529" viewBox="0 0 43.727 43.529">
  <path id="ic_wb_sunny_24px" d="M12.449,9.077,8.871,5.519l-2.8,2.8,3.558,3.558ZM6.963,20.327H1V24.3H6.963ZM24.851.55H20.876V6.413h3.975V.55ZM39.659,8.322l-2.8-2.8L33.3,9.077l2.8,2.8Zm-6.38,27.23,3.558,3.578,2.8-2.8-3.578-3.558-2.783,2.783Zm5.486-15.225V24.3h5.963V20.327Zm-15.9-9.938A11.926,11.926,0,1,0,34.789,22.314,11.935,11.935,0,0,0,22.864,10.389Zm-1.988,33.69h3.975V38.215H20.876ZM6.068,36.307l2.8,2.8,3.558-3.578-2.8-2.8Z" transform="translate(-1 -0.55)" fill="#fff"/>
</svg>
